<svg xmlns="http://www.w3.org/2000/svg" width="1400" height="720" viewBox="0 0 1400 720">
  <defs><style>
    .txt { font-family: 'Times New Roman', serif; fill: #111827; }
    .tick { font-size: 24px; }
    .val { font-size: 24px; }
    .axis { stroke: #374151; stroke-width: 2.2; }
    .grid { stroke: #e5e7eb; stroke-width: 1.2; }
    .a { fill: #93c5fd; }
    .b { fill: #fca5a5; }
  </style></defs>
  <rect width="100%" height="100%" fill="#ffffff" />

<line x1="110" y1="590.0" x2="1340" y2="590.0" class="grid" />
<text x="92" y="597.0" text-anchor="end" class="txt tick">0.80</text>
<line x1="110" y1="474.4" x2="1340" y2="474.4" class="grid" />
<text x="92" y="481.4" text-anchor="end" class="txt tick">0.82</text>
<line x1="110" y1="358.9" x2="1340" y2="358.9" class="grid" />
<text x="92" y="365.9" text-anchor="end" class="txt tick">0.84</text>
<line x1="110" y1="243.3" x2="1340" y2="243.3" class="grid" />
<text x="92" y="250.3" text-anchor="end" class="txt tick">0.86</text>
<line x1="110" y1="127.8" x2="1340" y2="127.8" class="grid" />
<text x="92" y="134.8" text-anchor="end" class="txt tick">0.88</text>
<line x1="110" y1="70" x2="110" y2="590" class="axis" />
<line x1="110" y1="590" x2="1340" y2="590" class="axis" />
<rect x="232.0" y="367.9" width="72" height="222.1" class="a" />
<text x="268.0" y="355.9" text-anchor="middle" class="txt val">0.838</text>
<rect x="326.0" y="343.6" width="72" height="246.4" class="b" />
<text x="362.0" y="331.6" text-anchor="middle" class="txt val">0.843</text>
<text x="315.0" y="638" text-anchor="middle" class="txt tick">Phiên bản ban đầu</text>
<rect x="642.0" y="341.1" width="72" height="248.9" class="a" />
<text x="678.0" y="329.1" text-anchor="middle" class="txt val">0.843</text>
<rect x="736.0" y="185.8" width="72" height="404.2" class="b" />
<text x="772.0" y="173.8" text-anchor="middle" class="txt val">0.870</text>
<text x="725.0" y="638" text-anchor="middle" class="txt tick">Tăng tràn dịch</text>
<rect x="1052.0" y="287.3" width="72" height="302.7" class="a" />
<text x="1088.0" y="275.3" text-anchor="middle" class="txt val">0.852</text>
<rect x="1146.0" y="246.9" width="72" height="343.1" class="b" />
<text x="1182.0" y="234.9" text-anchor="middle" class="txt val">0.859</text>
<text x="1135.0" y="638" text-anchor="middle" class="txt tick">Phiên bản cuối</text>
</svg>